<?xml version="1.0" encoding="UTF-8" standalone="no"?>
<!-- Created with Inkscape (http://www.inkscape.org/) -->

<svg
   xmlns:dc="http://purl.org/dc/elements/1.1/"
   xmlns:cc="http://creativecommons.org/ns#"
   xmlns:rdf="http://www.w3.org/1999/02/22-rdf-syntax-ns#"
   xmlns:svg="http://www.w3.org/2000/svg"
   xmlns="http://www.w3.org/2000/svg"
   xmlns:xlink="http://www.w3.org/1999/xlink"
   xmlns:sodipodi="http://sodipodi.sourceforge.net/DTD/sodipodi-0.dtd"
   xmlns:inkscape="http://www.inkscape.org/namespaces/inkscape"
   width="128"
   height="128"
   viewBox="0 0 128 128"
   id="svg4232"
   version="1.1"
   inkscape:version="0.92.3 (unknown)"
   sodipodi:docname="action-symbols.svg">
  <defs
     id="defs4234" />
  <sodipodi:namedview
     id="base"
     pagecolor="#ffffff"
     bordercolor="#666666"
     borderopacity="1"
     inkscape:pageopacity="0"
     inkscape:pageshadow="2"
     inkscape:zoom="8.4464538"
     inkscape:cx="67.792643"
     inkscape:cy="97.330737"
     inkscape:document-units="px"
     inkscape:current-layer="layer2"
     showgrid="true"
     fit-margin-top="0"
     fit-margin-left="0"
     fit-margin-right="0"
     fit-margin-bottom="0"
     inkscape:window-width="1914"
     inkscape:window-height="1163"
     inkscape:window-x="1920"
     inkscape:window-y="0"
     inkscape:window-maximized="1"
     inkscape:snap-grids="true"
     inkscape:snap-to-guides="false"
     units="px"
     inkscape:snap-bbox="true"
     inkscape:bbox-nodes="true"
     inkscape:snap-bbox-edge-midpoints="true"
     inkscape:snap-bbox-midpoints="true"
     inkscape:bbox-paths="true"
     inkscape:object-paths="true"
     inkscape:object-nodes="true"
     inkscape:snap-smooth-nodes="true"
     inkscape:snap-midpoints="true"
     inkscape:snap-intersection-paths="true">
    <inkscape:grid
       type="xygrid"
       id="grid4246"
       originx="1"
       originy="1"
       spacingx="2"
       spacingy="2"
       visible="true" />
    <inkscape:grid
       type="xygrid"
       id="grid4164"
       spacingx="32"
       spacingy="32"
       empspacing="1"
       enabled="true"
       color="#d42cdc"
       opacity="0.1255" />
  </sodipodi:namedview>
  <metadata
     id="metadata4237">
    <rdf:RDF>
      <cc:Work
         rdf:about="">
        <dc:format>image/svg+xml</dc:format>
        <dc:type
           rdf:resource="http://purl.org/dc/dcmitype/StillImage" />
        <dc:title />
      </cc:Work>
    </rdf:RDF>
  </metadata>
  <g
     inkscape:label="Grid"
     inkscape:groupmode="layer"
     id="layer1"
     sodipodi:insensitive="true"
     style="display:none">
    <rect
       style="fill:none;fill-rule:evenodd;stroke:#000000;stroke-width:0.2px;stroke-linecap:butt;stroke-linejoin:miter;stroke-opacity:1"
       id="rect4244"
       width="32"
       height="32"
       x="0"
       y="0"
       inkscape:tile-cx="16"
       inkscape:tile-cy="16"
       inkscape:tile-w="32"
       inkscape:tile-h="32"
       inkscape:tile-x0="0"
       inkscape:tile-y0="0" />
    <use
       x="0"
       y="0"
       inkscape:tiled-clone-of="#rect4244"
       xlink:href="#rect4244"
       id="use4291"
       width="100%"
       height="100%" />
    <use
       x="0"
       y="0"
       inkscape:tiled-clone-of="#rect4244"
       xlink:href="#rect4244"
       transform="translate(0,32)"
       id="use4293"
       width="100%"
       height="100%" />
    <use
       x="0"
       y="0"
       inkscape:tiled-clone-of="#rect4244"
       xlink:href="#rect4244"
       transform="translate(0,64)"
       id="use4295"
       width="100%"
       height="100%" />
    <use
       x="0"
       y="0"
       inkscape:tiled-clone-of="#rect4244"
       xlink:href="#rect4244"
       transform="translate(0,96)"
       id="use4297"
       width="100%"
       height="100%" />
    <use
       x="0"
       y="0"
       inkscape:tiled-clone-of="#rect4244"
       xlink:href="#rect4244"
       transform="translate(32)"
       id="use4299"
       width="100%"
       height="100%" />
    <use
       x="0"
       y="0"
       inkscape:tiled-clone-of="#rect4244"
       xlink:href="#rect4244"
       transform="translate(32,32)"
       id="use4301"
       width="100%"
       height="100%" />
    <use
       x="0"
       y="0"
       inkscape:tiled-clone-of="#rect4244"
       xlink:href="#rect4244"
       transform="translate(32,64)"
       id="use4303"
       width="100%"
       height="100%" />
    <use
       x="0"
       y="0"
       inkscape:tiled-clone-of="#rect4244"
       xlink:href="#rect4244"
       transform="translate(32,96)"
       id="use4305"
       width="100%"
       height="100%" />
    <use
       x="0"
       y="0"
       inkscape:tiled-clone-of="#rect4244"
       xlink:href="#rect4244"
       transform="translate(64)"
       id="use4307"
       width="100%"
       height="100%" />
    <use
       x="0"
       y="0"
       inkscape:tiled-clone-of="#rect4244"
       xlink:href="#rect4244"
       transform="translate(64,32)"
       id="use4309"
       width="100%"
       height="100%" />
    <use
       x="0"
       y="0"
       inkscape:tiled-clone-of="#rect4244"
       xlink:href="#rect4244"
       transform="translate(64,64)"
       id="use4311"
       width="100%"
       height="100%" />
    <use
       x="0"
       y="0"
       inkscape:tiled-clone-of="#rect4244"
       xlink:href="#rect4244"
       transform="translate(64,96)"
       id="use4313"
       width="100%"
       height="100%" />
    <use
       x="0"
       y="0"
       inkscape:tiled-clone-of="#rect4244"
       xlink:href="#rect4244"
       transform="translate(96)"
       id="use4315"
       width="100%"
       height="100%" />
    <use
       x="0"
       y="0"
       inkscape:tiled-clone-of="#rect4244"
       xlink:href="#rect4244"
       transform="translate(96,32)"
       id="use4317"
       width="100%"
       height="100%" />
    <use
       x="0"
       y="0"
       inkscape:tiled-clone-of="#rect4244"
       xlink:href="#rect4244"
       transform="translate(96,64)"
       id="use4319"
       width="100%"
       height="100%" />
    <use
       x="0"
       y="0"
       inkscape:tiled-clone-of="#rect4244"
       xlink:href="#rect4244"
       transform="translate(96,96)"
       id="use4321"
       width="100%"
       height="100%" />
  </g>
  <g
     inkscape:groupmode="layer"
     id="layer2"
     inkscape:label="Symbols"
     transform="translate(0,-0)">
    <path
       sodipodi:nodetypes="ccccc"
       inkscape:connector-curvature="0"
       id="path4326"
       d="m 71,102 0,6 18,0 0,-6 z"
       style="fill:#ff0000;fill-rule:evenodd;stroke:#000000;stroke-width:2;stroke-linecap:butt;stroke-linejoin:round;stroke-miterlimit:4;stroke-dasharray:none;stroke-opacity:1" />
    <path
       style="fill:#c837ab;fill-rule:evenodd;stroke:#000000;stroke-width:2;stroke-linecap:butt;stroke-linejoin:round;stroke-miterlimit:4;stroke-dasharray:none;stroke-opacity:1"
       d="m 3,107 8,0 0,-4 6,6 -6,6 0,-4 -8,0 z"
       id="path4343"
       inkscape:connector-curvature="0"
       sodipodi:nodetypes="cccccccc" />
    <path
       style="fill:#cd87de;fill-rule:evenodd;stroke:#000000;stroke-width:2;stroke-linecap:butt;stroke-linejoin:round;stroke-miterlimit:4;stroke-dasharray:none;stroke-opacity:1"
       d="m 45,111 c 0,-2 2,-4 4,-4 2,0 4,2 4,4 0,2 -4,4 -4,8 l 0,4 4,0 0,-4 c 0,-2 4,-4 4,-8 0,-4 -4.0021,-7.9875 -8,-8 -3.9979,-0.0125 -8,4 -8,8 z"
       id="path4345"
       inkscape:connector-curvature="0"
       sodipodi:nodetypes="czzsccszzcc" />
    <path
       style="fill:#80e5ff;fill-rule:evenodd;stroke:#000000;stroke-width:2;stroke-linecap:butt;stroke-linejoin:miter;stroke-miterlimit:4;stroke-dasharray:none;stroke-opacity:1"
       d="m 70.1412,108.9762 c -0.0536,-3.0906 1.1184,-2.899 2.0368,-2.9307 0.9184,-0.0317 2.5122,0.437 2.6189,2.4247 0.1067,1.9876 -3.7004,2.5436 -3.7004,4.7311 l 0,4.7812 5.0312,0.0312 0,-4.9687 c 0,-2.0313 2.2575,-1.9129 2.8723,-4.045 0.6147,-2.132 -2.1759,-6.5336 -6.262,-6.4597 -4.0862,0.0738 -7.1275,2.404 -6.2406,6.4796 z"
       id="path4345-3"
       inkscape:connector-curvature="0"
       sodipodi:nodetypes="czzsccszzcc" />
    <path
       style="fill:#d35fbc;fill-rule:evenodd;stroke:#000000;stroke-width:2;stroke-linecap:butt;stroke-linejoin:miter;stroke-miterlimit:4;stroke-dasharray:none;stroke-opacity:1"
       d="m 110.4033,89.4359 c -0.0536,-3.0906 1.1184,-2.899 2.0368,-2.9307 0.9184,-0.0317 2.5122,0.437 2.6189,2.4247 0.1067,1.9877 -3.7004,2.5436 -3.7004,4.7311 l 0,4.7812 5.0312,0.0313 0,-4.9687 c 0,-2.0313 2.2575,-1.9129 2.8723,-4.045 0.6147,-2.132 -2.1759,-6.5336 -6.2621,-6.4597 -4.0862,0.0738 -7.1275,2.404 -6.2406,6.4796 z"
       id="path4345-3-6"
       inkscape:connector-curvature="0"
       sodipodi:nodetypes="czzsccszzcc" />
    <path
       style="fill:#ffff00;fill-rule:evenodd;stroke:#000000;stroke-width:2;stroke-linecap:butt;stroke-linejoin:round;stroke-miterlimit:4;stroke-dasharray:none;stroke-opacity:1"
       d="m 101,115 6,6 10,-10 6,6 0,-18 -18,0 6,6 z"
       id="path4160"
       inkscape:connector-curvature="0"
       sodipodi:nodetypes="cccccccc" />
    <path
       sodipodi:nodetypes="cccccccc"
       inkscape:connector-curvature="0"
       id="path4162"
       d="m 29,117 -8,0 0,4 -6,-6 6,-6 0,4 8,0 z"
       style="fill:#2ca089;fill-rule:evenodd;stroke:#000000;stroke-width:2;stroke-linecap:butt;stroke-linejoin:round;stroke-miterlimit:4;stroke-dasharray:none;stroke-opacity:1" />
    <path
       style="fill:#d7f4e3;fill-rule:evenodd;stroke:#000000;stroke-width:2;stroke-linecap:butt;stroke-linejoin:miter;stroke-miterlimit:4;stroke-dasharray:none;stroke-opacity:1"
       d="m 73,113 0,4 4,4 4,0 4,-4 0,-4 -4,-4 -4,0 z"
       id="path4166"
       inkscape:connector-curvature="0" />
    <path
       style="fill:#b3b3b3;fill-rule:evenodd;stroke:#000000;stroke-width:2;stroke-linecap:butt;stroke-linejoin:round;stroke-miterlimit:4;stroke-dasharray:none;stroke-opacity:1"
       d="m 73,35 -6,6 7.0277,7.0607 L 67,55 73,61 80.0607,53.9723 87,61 93,55 86.0277,48.149 93,41 87,35 80.0277,42.2045 Z"
       id="action-ignore"
       inkscape:connector-curvature="0"
       sodipodi:nodetypes="ccccccccccccc"
       inkscape:label="#path4166-3" />
    <path
       style="fill:#00ff00;fill-rule:evenodd;stroke:#000000;stroke-width:2;stroke-linecap:butt;stroke-linejoin:round;stroke-miterlimit:4;stroke-dasharray:none;stroke-opacity:1"
       d="m 21,21 4,4 c -4,4 -14,4 -18,0 -4,-4 -4,-14 0,-18 4,-4 14,-4 18,0 l 2,-2 0,8 -8,0 2,-2 c -2,-2 -8,-2 -10,0 -2,2 -2,8 0,10 2,2 8,2 10,0 z"
       id="action-refresh"
       inkscape:connector-curvature="0"
       sodipodi:nodetypes="cczzccccczzc"
       inkscape:label="#path4185" />
    <g
       id="action-update"
       inkscape:label="#g860">
      <path
         sodipodi:nodetypes="cccccc"
         inkscape:connector-curvature="0"
         id="path4187"
         d="m 41,7 0,20 c 4,2 16,2 20,0 l 0,-20 c -4,-2 -16,-2 -20,0 4,2 16,2 20,0"
         style="fill:#cccccc;fill-rule:nonzero;stroke:#666666;stroke-width:2;stroke-linecap:butt;stroke-linejoin:round;stroke-miterlimit:4;stroke-dasharray:none;stroke-opacity:1" />
      <path
         sodipodi:nodetypes="cccccccc"
         inkscape:connector-curvature="0"
         id="path4189"
         d="m 51,21 -8,0 0,4 -8,-8 8,-8 0,4 8,0 z"
         style="fill:#00ff00;fill-rule:evenodd;stroke:#000000;stroke-width:2;stroke-linecap:butt;stroke-linejoin:round;stroke-miterlimit:4;stroke-dasharray:none;stroke-opacity:1" />
    </g>
    <path
       sodipodi:nodetypes="ccccccccccccc"
       inkscape:connector-curvature="0"
       id="action-add"
       d="m 99,11 0,10 8,0 0,8 10,0 0,-8 8,0 0,-10 -8,0 0,-8 -10,0 0,8 z"
       style="fill:#00ff00;fill-rule:evenodd;stroke:#000000;stroke-width:2;stroke-linecap:butt;stroke-linejoin:round;stroke-miterlimit:4;stroke-dasharray:none;stroke-opacity:1"
       inkscape:label="#path4326-3" />
    <path
       sodipodi:nodetypes="ccccc"
       inkscape:connector-curvature="0"
       id="action-delete"
       d="m 3,43 0,10 26,0 0,-10 z"
       style="fill:#ff0000;fill-rule:evenodd;stroke:#000000;stroke-width:2;stroke-linecap:butt;stroke-linejoin:round;stroke-miterlimit:4;stroke-dasharray:none;stroke-opacity:1"
       inkscape:label="#path4326-3-3" />
    <g
       id="action-diff"
       inkscape:label="#g868">
      <path
         sodipodi:nodetypes="cccccccc"
         inkscape:connector-curvature="0"
         id="path4343-6"
         d="m 35,39 8,0 0,-4 8,8 -8,8 0,-4 -8,0 z"
         style="fill:#c837ab;fill-rule:evenodd;stroke:#000000;stroke-width:2;stroke-linecap:butt;stroke-linejoin:round;stroke-miterlimit:4;stroke-dasharray:none;stroke-opacity:1" />
      <path
         style="fill:#2ca089;fill-rule:evenodd;stroke:#000000;stroke-width:2;stroke-linecap:butt;stroke-linejoin:round;stroke-miterlimit:4;stroke-dasharray:none;stroke-opacity:1"
         d="m 61,57 -8,0 0,4 -8,-8 8,-8 0,4 8,0 z"
         id="path4162-7"
         inkscape:connector-curvature="0"
         sodipodi:nodetypes="cccccccc" />
    </g>
    <g
       id="action-commit"
       inkscape:label="#g864">
      <path
         style="fill:#cccccc;fill-rule:nonzero;stroke:#808080;stroke-width:2;stroke-linecap:butt;stroke-linejoin:round;stroke-miterlimit:4;stroke-dasharray:none;stroke-opacity:1"
         d="m 73,7 0,20 c 4,2 16,2 20,0 l 0,-20 c -4,-2 -16,-2 -20,0 4,2 16,2 20,0"
         id="path4173"
         inkscape:connector-curvature="0"
         sodipodi:nodetypes="cccccc" />
      <path
         style="fill:#00ff00;fill-rule:evenodd;stroke:#000000;stroke-width:2;stroke-linecap:butt;stroke-linejoin:round;stroke-miterlimit:4;stroke-dasharray:none;stroke-opacity:1"
         d="m 67,21 8,0 0,4 8,-8 -8,-8 0,4 -8,0 z"
         id="path4193"
         inkscape:connector-curvature="0"
         sodipodi:nodetypes="cccccccc" />
    </g>
    <path
       style="fill:#0066ff;fill-rule:evenodd;stroke:#000000;stroke-width:2;stroke-linecap:butt;stroke-linejoin:round;stroke-miterlimit:4;stroke-dasharray:none;stroke-opacity:1"
       d="M 111 35 L 109 37 L 109 41 L 111 43 L 115 43 L 117 41 L 117 37 L 115 35 L 111 35 z M 109 47 L 109 61 L 117 61 L 117 47 L 109 47 z "
       transform="translate(0,0)"
       id="action-info"
       inkscape:label="#path4174" />
    <g
       id="action-resolve"
       inkscape:label="#g872">
      <path
         sodipodi:nodetypes="ccccccccc"
         inkscape:connector-curvature="0"
         id="path4168"
         d="m 3,81 8,0 -6,10 8,0 8,-12 -8,0 6,-10 -8,0 z"
         style="fill:#ff0000;fill-rule:evenodd;stroke:#000000;stroke-width:2;stroke-linecap:butt;stroke-linejoin:round;stroke-miterlimit:4;stroke-dasharray:none;stroke-opacity:1;opacity:0.5" />
      <path
         style="fill:#00ff00;fill-rule:evenodd;stroke:#000000;stroke-width:2;stroke-linecap:butt;stroke-linejoin:round;stroke-miterlimit:4;stroke-dasharray:none;stroke-opacity:1"
         d="M 29,77 15,91 3,79 l 4,-4 8,8 10,-10 z"
         id="path4162-3"
         inkscape:connector-curvature="0"
         sodipodi:nodetypes="ccccccc" />
    </g>
    <g
       id="action-revert"
       inkscape:label="#g876">
      <path
         sodipodi:nodetypes="czcczcc"
         inkscape:connector-curvature="0"
         id="path4323-6"
         d="m 35,87 c 4,-4 8,-4 12,0 4,4 8,4 12,0 l 0,-8 c -4,4 -8,4 -12,0 -4,-4 -8,-4 -12,0 z"
         style="fill:#ffcc00;fill-rule:evenodd;stroke:#000000;stroke-width:2;stroke-linecap:butt;stroke-linejoin:round;stroke-miterlimit:4;stroke-dasharray:none;stroke-opacity:1;opacity:0.502" />
      <path
         sodipodi:nodetypes="cccccccc"
         inkscape:connector-curvature="0"
         id="path4189-6"
         d="m 55,81 -8,0 0,4 -8,-8 8,-8 0,4 8,0 z"
         style="fill:#f74500;fill-rule:evenodd;stroke:#000000;stroke-width:2;stroke-linecap:butt;stroke-linejoin:round;stroke-miterlimit:4;stroke-dasharray:none;stroke-opacity:1;fill-opacity:1" />
    </g>
  </g>
</svg>
